HIERARCHY
ROOT joint_Root
{
	OFFSET 0.0 0.0 0.0
	CHANNELS 6 Xposition Yposition Zposition Zrotation Xrotation Yrotation 
	JOINT Hips
	{
		OFFSET -17.1583 93.1646 452.98
		CHANNELS 6 Xposition Yposition Zposition Zrotation Xrotation Yrotation 
		JOINT Spine
		{
			OFFSET 15.7357 0.0 0.0
			CHANNELS 6 Xposition Yposition Zposition Zrotation Xrotation Yrotation 
			JOINT Chest
			{
				OFFSET 8.98455 -0.406207 0.0
				CHANNELS 6 Xposition Yposition Zposition Zrotation Xrotation Yrotation 
				JOINT Neck
				{
					OFFSET 16.3773 0.0 0.0
					CHANNELS 6 Xposition Yposition Zposition Zrotation Xrotation Yrotation 
					JOINT Head
					{
						OFFSET 6.45672 0.0 0.0
						CHANNELS 6 Xposition Yposition Zposition Zrotation Xrotation Yrotation 
						End Site
						{
							OFFSET 0.0 0.0 0.0
						}
					}
				}
				JOINT Shoulder_L
				{
					OFFSET 12.9942 -0.242716 4.98039
					CHANNELS 6 Xposition Yposition Zposition Zrotation Xrotation Yrotation 
					JOINT UpperArm_L
					{
						OFFSET 5.34809 0.0 0.0
						CHANNELS 6 Xposition Yposition Zposition Zrotation Xrotation Yrotation 
						JOINT LowerArm_L
						{
							OFFSET 24.3286 1.87007e-05 0.0
							CHANNELS 6 Xposition Yposition Zposition Zrotation Xrotation Yrotation 
							JOINT Hand_L
							{
								OFFSET 22.2916 0.0 0.0
								CHANNELS 6 Xposition Yposition Zposition Zrotation Xrotation Yrotation 
								End Site
								{
									OFFSET 0.0 0.0 0.0
								}
							}
						}
					}
				}
				JOINT Shoulder_R
				{
					OFFSET 12.9945 -0.242716 -4.98039
					CHANNELS 6 Xposition Yposition Zposition Zrotation Xrotation Yrotation 
					JOINT UpperArm_R
					{
						OFFSET -5.34813 0.0 0.0
						CHANNELS 6 Xposition Yposition Zposition Zrotation Xrotation Yrotation 
						JOINT LowerArm_R
						{
							OFFSET -24.3289 0.000322201 0.0
							CHANNELS 6 Xposition Yposition Zposition Zrotation Xrotation Yrotation 
							JOINT Hand_R
							{
								OFFSET -22.2915 -0.000108084 0.0
								CHANNELS 6 Xposition Yposition Zposition Zrotation Xrotation Yrotation 
								End Site
								{
									OFFSET 0.0 0.0 0.0
								}
							}
						}
					}
				}
			}
		}
		JOINT UpperLeg_L
		{
			OFFSET -2.19248 -6.46944 0.0
			CHANNELS 6 Xposition Yposition Zposition Zrotation Xrotation Yrotation 
			JOINT LowerLeg_L
			{
				OFFSET 39.0811 0.0 -1.23785e-05
				CHANNELS 6 Xposition Yposition Zposition Zrotation Xrotation Yrotation 
				JOINT Foot_L
				{
					OFFSET 40.9854 0.0 -1.26872e-05
					CHANNELS 6 Xposition Yposition Zposition Zrotation Xrotation Yrotation 
					JOINT Toes_L
					{
						OFFSET 11.7543 0.0 0.0
						CHANNELS 6 Xposition Yposition Zposition Zrotation Xrotation Yrotation 
						End Site
						{
							OFFSET 0.0 0.0 0.0
						}
					}
				}
			}
		}
		JOINT UpperLeg_R
		{
			OFFSET -2.19251 6.46944 0.0
			CHANNELS 6 Xposition Yposition Zposition Zrotation Xrotation Yrotation 
			JOINT LowerLeg_R
			{
				OFFSET -39.0811 -0.00228153 -0.0401928
				CHANNELS 6 Xposition Yposition Zposition Zrotation Xrotation Yrotation 
				JOINT Foot_R
				{
					OFFSET -40.9854 0.0 0.0
					CHANNELS 6 Xposition Yposition Zposition Zrotation Xrotation Yrotation 
					JOINT Toes_R
					{
						OFFSET -11.7543 0.0 0.0
						CHANNELS 6 Xposition Yposition Zposition Zrotation Xrotation Yrotation 
						End Site
						{
							OFFSET 0.0 0.0 0.0
						}
					}
				}
			}
		}
	}
}
MOTION
Frames:	8
Frame Time:	0.0333333
0.000000 0.000000 0.000000 0.000000 0.000000 -0.000000 -0.487843 92.875700 0.455715 87.240400 1.617230 1.187500 15.735700 0.000005 -0.000001 66.504800 87.367100 -64.561200 8.984550 -0.406207 -0.000000 -2.896180 -2.279250 3.830390 16.377300 -0.000001 -0.000001 5.523630 2.613200 -2.477100 6.456720 -0.000001 -0.000000 3.107390 2.415860 -2.710550 12.994200 -0.242716 4.980390 -92.582700 7.469920 -70.865000 5.348090 -0.000007 -0.000001 -75.197500 4.190440 2.550480 24.328600 0.000019 0.000005 11.446800 23.616100 -26.814500 22.291600 -0.000001 0.000005 -1.373710 4.964800 8.057160 12.994500 -0.242716 -4.980390 88.272900 5.154970 -71.448400 -5.348130 -0.000001 -0.000004 -69.695000 9.378880 -0.716340 -24.328900 0.000322 -0.000009 1.645110 3.443010 -25.572400 -22.291500 -0.000108 -0.000004 5.316810 5.225060 2.082730 -2.192480 -6.469440 -0.000000 -176.596000 2.442550 -1.704440 39.081100 -0.000007 -0.000012 0.191728 -0.553883 19.093800 40.985400 -0.000006 -0.000013 2.926630 10.456800 -72.218600 11.754300 -0.000000 0.000003 -0.000149 0.170102 -9.677450 -2.192510 6.469440 -0.000001 -175.767000 7.599730 -177.603000 -39.081100 -0.002282 -0.040193 0.023127 -0.091108 12.256500 -40.985400 0.000008 0.000006 -1.176170 2.908630 -68.828000 -11.754300 -0.000006 -0.000006 -0.009888 0.270466 -5.585320
0.000000 0.000000 0.000000 0.000000 0.000000 -0.000000 -0.528261 92.885000 0.405125 87.263700 1.676440 1.180300 15.735700 0.000005 -0.000001 66.550800 87.347900 -64.635200 8.984550 -0.406207 -0.000000 -2.859740 -2.287460 3.774990 16.377300 -0.000001 -0.000001 5.450460 2.575910 -2.393010 6.456720 -0.000001 -0.000000 3.022650 2.436380 -2.515010 12.994200 -0.242716 4.980390 -92.620500 7.560180 -70.819100 5.348090 -0.000007 -0.000001 -74.477900 0.906142 2.729800 24.328600 0.000019 0.000005 11.872100 22.430600 -28.853200 22.291600 -0.000001 0.000005 -0.041057 4.933780 8.694660 12.994500 -0.242716 -4.980390 88.272100 5.134190 -71.370900 -5.348130 -0.000001 -0.000004 -69.113800 7.489690 -0.650166 -24.328900 0.000322 -0.000009 2.033530 3.828810 -28.009000 -22.291500 -0.000108 -0.000004 5.472680 5.214440 2.354480 -2.192480 -6.469440 -0.000000 -176.571000 2.456470 -1.736130 39.081100 -0.000007 -0.000012 0.188616 -0.546421 19.044200 40.985400 -0.000006 -0.000013 2.891030 10.536200 -72.139600 11.754300 -0.000000 0.000003 -0.000250 0.171740 -9.610920 -2.192510 6.469440 -0.000001 -175.750000 7.601460 -177.617000 -39.081100 -0.002282 -0.040193 0.022754 -0.089716 12.213400 -40.985400 0.000008 0.000006 -1.156270 2.834530 -68.805800 -11.754300 -0.000006 -0.000006 -0.009960 0.271004 -5.563300
0.000000 0.000000 0.000000 0.000000 0.000000 -0.000000 -0.586984 92.891300 0.317459 87.273500 1.834460 1.161380 15.735700 0.000005 -0.000001 66.816900 87.326600 -64.928900 8.984550 -0.406207 -0.000000 -2.811560 -2.278290 3.720870 16.377300 -0.000001 -0.000001 5.343800 2.502460 -2.273610 6.456720 -0.000001 -0.000000 2.853550 2.396270 -2.257480 12.994200 -0.242716 4.980390 -92.645000 7.592840 -70.729500 5.348090 -0.000007 -0.000001 -73.657800 -2.335890 2.962700 24.328600 0.000019 0.000005 13.121700 21.621200 -32.318500 22.291600 -0.000001 0.000005 1.681620 4.899460 9.384150 12.994500 -0.242716 -4.980390 88.273900 5.106450 -71.295200 -5.348130 -0.000001 -0.000004 -68.523100 4.982350 -0.439779 -24.328900 0.000322 -0.000009 2.577730 4.255320 -31.254900 -22.291500 -0.000108 -0.000004 5.941920 5.193960 2.868870 -2.192480 -6.469440 -0.000000 -176.526000 2.511600 -1.867670 39.081100 -0.000007 -0.000012 0.188666 -0.545058 19.093100 40.985400 -0.000006 -0.000013 2.855050 10.640400 -72.120400 11.754300 -0.000000 0.000003 -0.000251 0.171756 -9.610270 -2.192510 6.469440 -0.000001 -175.687000 7.615790 -177.707000 -39.081100 -0.002282 -0.040193 0.023482 -0.093070 12.214400 -40.985400 0.000008 0.000006 -1.086290 2.703390 -68.742700 -11.754300 -0.000006 -0.000006 -0.009770 0.269580 -5.621560
0.000000 0.000000 0.000000 0.000000 0.000000 -0.000000 -0.640571 92.910300 0.229322 87.278000 2.063940 1.079470 15.735700 0.000005 -0.000001 67.357100 87.336400 -65.487400 8.984550 -0.406207 -0.000000 -2.811410 -2.222590 3.685510 16.377300 -0.000001 -0.000001 5.278940 2.397580 -2.113040 6.456720 -0.000001 -0.000000 2.598930 2.267260 -2.009230 12.994200 -0.242716 4.980390 -92.681300 7.640290 -70.595800 5.348090 -0.000007 -0.000001 -72.770300 -5.660490 3.232870 24.328600 0.000019 0.000005 14.880200 20.626900 -37.025100 22.291600 -0.000001 0.000005 3.171880 4.851120 10.336700 12.994500 -0.242716 -4.980390 88.272700 5.084240 -71.207700 -5.348130 -0.000001 -0.000004 -67.868600 2.105780 -0.041611 -24.328900 0.000322 -0.000009 3.099550 4.359310 -35.472700 -22.291500 -0.000108 -0.000004 6.803760 5.160290 3.694380 -2.192480 -6.469440 -0.000000 -176.477000 2.605290 -2.028630 39.081100 -0.000007 -0.000012 0.188360 -0.545715 19.043100 40.985400 -0.000006 -0.000013 2.815640 10.760500 -72.009000 11.754300 -0.000000 0.000003 -0.000293 0.172421 -9.583250 -2.192510 6.469440 -0.000001 -175.639000 7.748860 -177.804000 -39.081100 -0.002282 -0.040193 0.022139 -0.087656 12.107300 -40.985400 0.000008 0.000006 -1.156210 2.621040 -68.651400 -11.754300 -0.000006 -0.000006 -0.010024 0.271487 -5.543540
0.000000 0.000000 0.000000 0.000000 0.000000 -0.000000 -0.703621 92.918800 0.135680 87.297300 2.309470 1.090150 15.735700 0.000005 -0.000001 68.462500 87.322900 -66.608300 8.984550 -0.406207 -0.000000 -2.749340 -2.134890 3.657760 16.377300 -0.000001 -0.000001 5.229210 2.242390 -1.859900 6.456720 -0.000001 -0.000000 2.323310 2.110520 -1.793960 12.994200 -0.242716 4.980390 -92.713600 7.673010 -70.456300 5.348090 -0.000007 -0.000001 -71.949100 -9.151070 3.453990 24.328600 0.000019 0.000005 17.291100 19.588200 -42.875600 22.291600 -0.000001 0.000005 4.759440 4.791540 11.473400 12.994500 -0.242716 -4.980390 88.300300 4.983330 -71.139600 -5.348130 -0.000001 -0.000004 -67.252000 -1.119880 0.420728 -24.328900 0.000322 -0.000009 3.811620 4.461480 -40.585400 -22.291500 -0.000108 -0.000004 7.574060 5.126760 4.490350 -2.192480 -6.469440 -0.000000 -176.430000 2.752780 -2.124690 39.081100 -0.000007 -0.000012 0.185511 -0.537030 19.057200 40.985400 -0.000006 -0.000013 2.778190 10.917600 -71.948400 11.754300 -0.000000 0.000003 -0.000233 0.171460 -9.622290 -2.192510 6.469440 -0.000001 -175.597000 7.927840 -177.851000 -39.081100 -0.002282 -0.040193 0.022498 -0.089522 12.082300 -40.985400 0.000008 0.000006 -1.058380 2.534940 -68.606500 -11.754300 -0.000006 -0.000006 -0.009835 0.270067 -5.601610
0.000000 0.000000 0.000000 0.000000 0.000000 -0.000000 -0.774534 92.931300 0.043732 87.315700 2.605010 1.112920 15.735700 0.000005 -0.000001 69.303700 87.314400 -67.471500 8.984550 -0.406207 -0.000000 -2.706500 -2.064960 3.616030 16.377300 -0.000001 -0.000001 5.198650 2.100650 -1.563060 6.456720 -0.000001 -0.000000 2.080000 1.943560 -1.422570 12.994200 -0.242716 4.980390 -92.709300 7.655850 -70.444800 5.348090 -0.000007 -0.000001 -71.204100 -12.744600 3.718380 24.328600 0.000019 0.000005 20.492700 18.302100 -49.960500 22.291600 -0.000001 0.000005 6.909400 4.730770 12.594800 12.994500 -0.242716 -4.980390 88.335200 4.877180 -71.127000 -5.348130 -0.000001 -0.000004 -66.576800 -4.123290 1.007700 -24.328900 0.000322 -0.000009 4.408110 4.175920 -46.636100 -22.291500 -0.000108 -0.000004 8.868250 5.086010 5.428550 -2.192480 -6.469440 -0.000000 -176.392000 2.922680 -2.216960 39.081100 -0.000007 -0.000012 0.186686 -0.540297 19.061600 40.985400 -0.000006 -0.000013 2.728250 11.029200 -71.895200 11.754300 -0.000000 0.000003 -0.000356 0.173418 -9.542730 -2.192510 6.469440 -0.000001 -175.552000 8.066630 -177.854000 -39.081100 -0.002282 -0.040193 0.021652 -0.086152 12.003000 -40.985400 0.000008 0.000006 -1.059290 2.382890 -68.520400 -11.754300 -0.000006 -0.000006 -0.009846 0.270153 -5.598120
0.000000 0.000000 0.000000 0.000000 0.000000 -0.000000 -0.860287 92.939900 -0.061715 87.318800 2.960330 1.114130 15.735700 0.000005 -0.000001 69.209900 87.288700 -67.396300 8.984550 -0.406207 -0.000000 -2.661570 -2.089020 3.579160 16.377300 -0.000001 -0.000001 5.192320 1.928330 -1.206400 6.456720 -0.000001 -0.000000 1.733340 1.823640 -0.939798 12.994200 -0.242716 4.980390 -92.711000 7.614420 -70.335900 5.348090 -0.000007 -0.000001 -70.545300 -16.145400 3.826360 24.328600 0.000019 0.000005 23.018700 15.583700 -57.693800 22.291600 -0.000001 0.000005 9.029560 4.637420 14.259000 12.994500 -0.242716 -4.980390 88.367400 4.758060 -71.037100 -5.348130 -0.000001 -0.000004 -66.008200 -7.269460 1.313370 -24.328900 0.000322 -0.000009 5.461550 4.090140 -53.277100 -22.291500 -0.000108 -0.000004 9.644320 5.039270 6.470990 -2.192480 -6.469440 -0.000000 -176.312000 3.156690 -2.370590 39.081100 -0.000007 -0.000012 0.185019 -0.533946 19.112100 40.985400 -0.000006 -0.000013 2.671590 11.187500 -71.838800 11.754300 -0.000000 0.000003 -0.000247 0.171678 -9.613420 -2.192510 6.469440 -0.000001 -175.483000 8.318810 -177.924000 -39.081100 -0.002282 -0.040193 0.021476 -0.085454 11.985200 -40.985400 0.000008 0.000006 -1.078390 2.272750 -68.477500 -11.754300 -0.000006 -0.000006 -0.009963 0.271029 -5.562270
0.000000 0.000000 0.000000 0.000000 0.000000 -0.000000 -0.948656 92.940800 -0.165723 87.314600 3.329400 1.149000 15.735700 0.000005 -0.000001 68.911800 87.260400 -67.114200 8.984550 -0.406207 -0.000000 -2.618510 -2.133590 3.546870 16.377300 -0.000001 -0.000001 5.261580 1.772330 -0.802910 6.456720 -0.000001 -0.000000 1.340120 1.733950 -0.318165 12.994200 -0.242716 4.980390 -92.671800 7.480630 -70.280700 5.348090 -0.000007 -0.000001 -70.092300 -19.353100 3.723430 24.328600 0.000019 0.000005 25.943800 12.447900 -66.101200 22.291600 -0.000001 0.000005 10.880000 4.537350 15.975600 12.994500 -0.242716 -4.980390 88.409000 4.616840 -70.961900 -5.348130 -0.000001 -0.000004 -65.544400 -10.316400 1.452860 -24.328900 0.000322 -0.000009 6.957320 3.977560 -60.382800 -22.291500 -0.000108 -0.000004 10.844700 5.001240 7.289200 -2.192480 -6.469440 -0.000000 -176.231000 3.391600 -2.532620 39.081100 -0.000007 -0.000012 0.186410 -0.534280 19.234200 40.985400 -0.000006 -0.000013 2.621440 11.341200 -71.801200 11.754300 -0.000000 0.000003 -0.000355 0.173398 -9.543550 -2.192510 6.469440 -0.000001 -175.379000 8.491000 -177.963000 -39.081100 -0.002282 -0.040193 0.022224 -0.089118 11.967000 -40.985400 0.000008 0.000006 -0.927148 2.031700 -68.432100 -11.754300 -0.000006 -0.000006 -0.009682 0.268913 -5.648820
